<svg viewBox="0 0 503.357 503.357" xmlns="http://www.w3.org/2000/svg"><path d="M378.031 51.66L491.023.81a8.678 8.678 0 0 1 11.492 11.488L451.66 125.293zm0 0" fill="#fac176"/><path d="M80.707 355.406l-3.21-3.21a17.355 17.355 0 0 0-24.559 0L40.698 364.52c-3.25 3.242-5.074 7.644-5.074 12.234s1.824 8.992 5.074 12.234l73.676 73.676a17.284 17.284 0 0 0 24.473 0l12.324-12.234a17.355 17.355 0 0 0 0-24.559zm0 0" fill="#5e5f62"/><path d="M40.668 389.027l73.633 73.637-24.543 24.543c-13.555 13.555-35.535 13.555-49.09 0l-24.547-24.543c-13.555-13.559-13.555-35.535 0-49.09zm0 0" fill="#f09372"/><path d="M357.36 72.29a204.433 204.433 0 0 0-63.176-24.474l-8.54-40.875A8.68 8.68 0 0 0 277.149 0h-50.972a8.678 8.678 0 0 0-8.496 6.941l-8.54 40.875a203.508 203.508 0 0 0-71.507 29.68L102.66 54.551a8.68 8.68 0 0 0-10.89 1.117L55.668 91.77a8.68 8.68 0 0 0-1.117 10.89l22.945 34.973a203.508 203.508 0 0 0-29.68 71.508L6.941 217.68A8.678 8.678 0 0 0 0 226.176v50.972a8.68 8.68 0 0 0 6.941 8.497l40.875 8.539a204.433 204.433 0 0 0 24.473 63.175c.691 1.301 1.559 2.688 2.43 3.993.867 1.472 1.82 2.863 2.777 4.25L54.543 400.66a8.674 8.674 0 0 0 1.125 10.89l36.102 36.102a8.676 8.676 0 0 0 10.89 1.13l35.059-22.954c1.39.953 2.777 1.91 4.254 2.777 1.3.868 2.687 1.735 3.992 2.43a204.53 204.53 0 0 0 63.176 24.473l8.539 40.906a8.674 8.674 0 0 0 8.496 6.941h50.972a8.677 8.677 0 0 0 8.497-6.94l8.539-40.907a203.654 203.654 0 0 0 71.507-29.68l34.97 22.945a8.68 8.68 0 0 0 10.89-1.12l36.101-36.102a8.68 8.68 0 0 0 1.121-10.89l-22.945-34.97a203.654 203.654 0 0 0 29.68-71.507l40.906-8.54a8.677 8.677 0 0 0 6.941-8.496v-50.972a8.674 8.674 0 0 0-6.94-8.496l-40.907-8.54a204.53 204.53 0 0 0-24.473-63.175zm0 0" fill="#a5a5a4"/><path d="M318.914 110.73a154.231 154.231 0 0 0-67.254-15.273c-86.27 0-156.203 69.934-156.203 156.203.082 86.235 69.969 156.121 156.203 156.203 86.27 0 156.203-69.933 156.203-156.203a154.244 154.244 0 0 0-15.273-67.254zm0 0" fill="#5e5f62"/><path d="M263.898 165.75l-98.148 98.148a81.217 81.217 0 0 1-.867-12.238c0-47.926 38.851-86.777 86.777-86.777 4.094-.02 8.188.27 12.238.867zm0 0" fill="#2c2f38"/><path d="M378.012 51.633l-20.653 20.656-38.445 38.441-55.016 55.02-98.148 98.148a86.317 86.317 0 0 0 24.559 49.118l224.5-224.5zm0 0" fill="#e64c3c"/><path d="M414.809 88.516l-224.5 224.5a86.353 86.353 0 0 0 49.117 24.558l92.941-92.941 119.32-119.324zm0 0" fill="#c03a2b"/><g fill="#2c2f38"><path d="M502.543 12.324l-19.094 42.434a105.412 105.412 0 0 1-19.699-15.535 107.71 107.71 0 0 1-15.36-19.262L491 .78a8.737 8.737 0 0 1 9.742 1.801 8.748 8.748 0 0 1 1.801 9.742zm0 0M239.426 337.574l98.148-98.148c.598 4.05.887 8.14.867 12.234 0 47.93-38.851 86.781-86.78 86.781-4.095.02-8.184-.27-12.235-.867zm0 0"/></g></svg>